<?xml version="1.0" encoding="UTF-8" standalone="no"?>
<!-- Created with Inkscape (http://www.inkscape.org/) -->

<svg
   xmlns:dc="http://purl.org/dc/elements/1.1/"
   xmlns:cc="http://creativecommons.org/ns#"
   xmlns:rdf="http://www.w3.org/1999/02/22-rdf-syntax-ns#"
   xmlns:svg="http://www.w3.org/2000/svg"
   xmlns="http://www.w3.org/2000/svg"
   xmlns:xlink="http://www.w3.org/1999/xlink"
   xmlns:sodipodi="http://sodipodi.sourceforge.net/DTD/sodipodi-0.dtd"
   xmlns:inkscape="http://www.inkscape.org/namespaces/inkscape"
   width="640"
   height="1136"
   id="svg2"
   version="1.1"
   inkscape:version="0.48.2 r9819"
   sodipodi:docname="drawing.svg"
   inkscape:export-filename="/Users/nicholas/Dropbox/Code/alarm/alarm/ideas/settingsScrollView.png"
   inkscape:export-xdpi="90"
   inkscape:export-ydpi="90">
  <defs
     id="defs4" />
  <sodipodi:namedview
     id="base"
     pagecolor="#ffffff"
     bordercolor="#666666"
     borderopacity="1.0"
     inkscape:pageopacity="0.0"
     inkscape:pageshadow="2"
     inkscape:zoom="0.35"
     inkscape:cx="375"
     inkscape:cy="520"
     inkscape:document-units="px"
     inkscape:current-layer="layer1"
     showgrid="false"
     inkscape:window-width="1286"
     inkscape:window-height="757"
     inkscape:window-x="4"
     inkscape:window-y="0"
     inkscape:window-maximized="0" />
  <metadata
     id="metadata7">
    <rdf:RDF>
      <cc:Work
         rdf:about="">
        <dc:format>image/svg+xml</dc:format>
        <dc:type
           rdf:resource="http://purl.org/dc/dcmitype/StillImage" />
        <dc:title></dc:title>
      </cc:Work>
    </rdf:RDF>
  </metadata>
  <g
     inkscape:label="Layer 1"
     inkscape:groupmode="layer"
     id="layer1"
     transform="translate(0,83.637817)">
    <rect
       style="fill:#70b3eb;fill-opacity:1;stroke:#a02c2c;stroke-width:1.32316804;stroke-opacity:0"
       id="rect2985"
       width="638.67682"
       height="1134.6769"
       x="0.66158402"
       y="-82.976227"
       ry="0" />
    <rect
       style="fill:#f9f9f9;fill-opacity:1;stroke:#a02c2c;stroke-width:1.0807662;stroke-opacity:0"
       id="rect2989"
       width="420.5"
       height="120.00001"
       x="173.78571"
       y="18.076469"
       ry="25.714285"
       rx="40" />
    <flowRoot
       xml:space="preserve"
       id="flowRoot2991"
       style="font-size:40px;font-style:normal;font-weight:normal;line-height:125%;letter-spacing:0px;word-spacing:0px;fill:#e6e6e6;fill-opacity:1;stroke:none;font-family:Sans"
       transform="translate(860,-706.49496)"><flowRegion
         id="flowRegion2993"><rect
           id="rect2995"
           width="222.85713"
           height="54.285698"
           x="-688.57141"
           y="650.28571"
           style="fill:#e6e6e6" /></flowRegion><flowPara
         id="flowPara2999">Waking up</flowPara></flowRoot>    <use
       x="0"
       y="0"
       xlink:href="#rect2989"
       id="use3003"
       transform="translate(-2.8571429,160)"
       width="640"
       height="1136" />
    <flowRoot
       xml:space="preserve"
       id="flowRoot3007"
       style="font-size:40px;font-style:normal;font-weight:normal;line-height:125%;letter-spacing:0px;word-spacing:0px;fill:#000000;fill-opacity:1;stroke:none;font-family:Sans"
       transform="translate(11.428571,-106.49496)"><flowRegion
         id="flowRegion3009"><rect
           id="rect3011"
           width="300"
           height="51.42857"
           x="160"
           y="433.14285" /></flowRegion><flowPara
         id="flowPara3015"
         style="fill:#f2f2f2">Mood</flowPara></flowRoot>    <flowRoot
       xml:space="preserve"
       id="flowRoot3019"
       style="fill:black;stroke:none;stroke-opacity:1;stroke-width:1px;stroke-linejoin:miter;stroke-linecap:butt;fill-opacity:1;font-family:Sans;font-style:normal;font-weight:normal;font-size:40px;line-height:125%;letter-spacing:0px;word-spacing:0px"><flowRegion
         id="flowRegion3021"><rect
           id="rect3023"
           width="1034.2858"
           height="134.28572"
           x="300"
           y="476" /></flowRegion><flowPara
         id="flowPara3025"></flowPara></flowRoot>    <use
       x="0"
       y="0"
       xlink:href="#use3003"
       id="use3027"
       transform="translate(2.8571429,471.42858)"
       width="640"
       height="1136"
       style="fill:#a7cff1;fill-opacity:1" />
    <use
       x="0"
       y="0"
       xlink:href="#use3027"
       id="use3029"
       transform="matrix(1,0,0,1.7822076,-4.2857144e-7,-765.19064)"
       width="640"
       height="1136" />
    <path
       sodipodi:type="arc"
       style="fill:#a7cff1;fill-opacity:1;stroke:#a02c2c;stroke-opacity:0"
       id="path3031"
       sodipodi:cx="-364.28571"
       sodipodi:cy="557.42859"
       sodipodi:rx="38.57143"
       sodipodi:ry="38.57143"
       d="m -325.71428,557.42859 a 38.57143,38.57143 0 1 1 -77.14286,0 38.57143,38.57143 0 1 1 77.14286,0 z"
       transform="translate(600,-480.78067)"
       inkscape:tile-cx="235.71429"
       inkscape:tile-cy="160.28574"
       inkscape:tile-w="77.14286"
       inkscape:tile-h="77.14286"
       inkscape:tile-x0="197.14286"
       inkscape:tile-y0="121.71431" />
    <use
       x="0"
       y="0"
       xlink:href="#path3031"
       id="use3035"
       transform="translate(140,0)"
       width="640"
       height="1136" />
    <use
       x="0"
       y="0"
       inkscape:tiled-clone-of="#path3031"
       xlink:href="#path3031"
       id="use3037" />
    <use
       x="0"
       y="0"
       inkscape:tiled-clone-of="#path3031"
       xlink:href="#path3031"
       transform="translate(274.28571,5.7142886)"
       id="use3039"
       width="640"
       height="1136" />
    <use
       x="0"
       y="0"
       inkscape:tiled-clone-of="#path3031"
       xlink:href="#path3031"
       transform="translate(8.5714314,165.71429)"
       id="use3041"
       width="640"
       height="1136" />
    <use
       x="0"
       y="0"
       inkscape:tiled-clone-of="#path3031"
       xlink:href="#path3031"
       transform="translate(142.85715,162.85715)"
       id="use3043"
       width="640"
       height="1136"
       inkscape:tile-cx="378.57144"
       inkscape:tile-cy="323.14289"
       inkscape:tile-w="77.14286"
       inkscape:tile-h="77.14286"
       inkscape:tile-x0="340.00001"
       inkscape:tile-y0="284.57146" />
    <use
       x="0"
       y="0"
       inkscape:tiled-clone-of="#use3043"
       xlink:href="#use3043"
       id="use3045" />
    <use
       x="0"
       y="0"
       inkscape:tiled-clone-of="#use3043"
       xlink:href="#use3043"
       transform="translate(122.85714,-2.85714)"
       id="use3047"
       width="640"
       height="1136" />
    <use
       x="0"
       y="0"
       inkscape:tiled-clone-of="#use3043"
       xlink:href="#use3043"
       transform="translate(-134.28571,220)"
       id="use3049"
       width="640"
       height="1136" />
    <use
       x="0"
       y="0"
       inkscape:tiled-clone-of="#use3043"
       xlink:href="#use3043"
       transform="translate(-140,308.57143)"
       id="use3051"
       width="640"
       height="1136" />
    <use
       x="0"
       y="0"
       xlink:href="#use3049"
       id="use3053"
       transform="translate(134.28572,0)"
       width="640"
       height="1136" />
    <use
       x="0"
       y="0"
       xlink:href="#use3053"
       id="use3055"
       transform="translate(134.28571,-4.2857141e-7)"
       width="640"
       height="1136" />
    <use
       x="0"
       y="0"
       xlink:href="#use3049"
       id="use3057"
       transform="translate(2.8571429,251.42857)"
       width="640"
       height="1136" />
    <use
       x="0"
       y="0"
       xlink:href="#use3057"
       id="use3059"
       transform="translate(137.14286,-2.8571429)"
       width="640"
       height="1136" />
    <use
       x="0"
       y="0"
       xlink:href="#use3059"
       id="use3061"
       transform="translate(128.57143,0)"
       width="640"
       height="1136" />
    <path
       style="fill:none;stroke:#000000;stroke-width:1px;stroke-linecap:butt;stroke-linejoin:miter;stroke-opacity:1"
       d="M 105.71429,890.28571 48.571429,1007.4286 111.42857,1096 l 2.85714,-37.1429 -39.999996,-54.2857 39.999996,-77.14283 z"
       id="path3063"
       inkscape:connector-curvature="0"
       transform="translate(0,-83.637817)" />
    <path
       style="fill:#a7cff1;fill-opacity:1;stroke:#a02c2c;stroke-width:2.85714293;stroke-opacity:0"
       d="m 81.232149,1049.6781 c -14.509672,-20.3653 -27.046659,-38.7619 -27.85997,-40.8813 -0.813312,-2.1195 10.571184,-28.28013 25.298878,-58.13478 l 26.777633,-54.28117 3.293,15.69948 3.293,15.69948 -19.945919,37.75113 c -10.970251,20.76311 -19.945914,38.33266 -19.945914,39.04346 0,0.7108 9,13.3095 20,27.997 16.124923,21.5306 19.991523,28.6847 19.956253,36.9238 -0.088,20.5627 -3.79159,18.185 -30.866961,-19.8171 l 0,0 z"
       id="path3065"
       inkscape:connector-curvature="0"
       transform="translate(0,-83.637817)" />
    <text
       xml:space="preserve"
       style="font-size:40px;font-style:normal;font-weight:normal;line-height:125%;letter-spacing:0px;word-spacing:0px;fill:#000000;fill-opacity:1;stroke:none;font-family:Sans"
       x="277.14285"
       y="927.42859"
       id="text3067"
       sodipodi:linespacing="125%"
       transform="translate(0,-83.637817)"><tspan
         sodipodi:role="line"
         id="tspan3069"
         x="277.14285"
         y="927.42859">More</tspan></text>
    <path
       style="fill:none;stroke:#000000;stroke-width:1px;stroke-linecap:butt;stroke-linejoin:miter;stroke-opacity:1"
       d="m 322.85714,993.14286 2.85715,71.42854 -40,8.5715 57.14285,45.7142 42.85715,-51.4285 -31.42858,0 -5.71428,-74.28574 z"
       id="path3071"
       inkscape:connector-curvature="0"
       transform="translate(0,-83.637817)" />
    <path
       style="fill:#a7cff1;fill-opacity:1;stroke:#a02c2c;stroke-width:2.85714293;stroke-opacity:0"
       d="m 316.39783,1094.7505 -25.68354,-20.6781 18.01632,-3.8896 18.01633,-3.8897 -0.87347,-35.4375 L 325,995.41817 l 10.44618,0.005 c 10.33186,0.005 10.46368,0.15372 12.04604,13.57663 0.87992,7.4643 2.4201,24.1786 3.42262,37.1429 l 1.82277,23.5714 14.09418,0 14.09419,0 -19.13304,22.8571 c -10.52317,12.5715 -19.26321,22.8572 -19.4223,22.8572 -0.15909,0 -11.84686,-9.3052 -25.97281,-20.6781 l 0,0 z"
       id="path3073"
       inkscape:connector-curvature="0"
       transform="translate(0,-83.637817)" />
  </g>
</svg>
