<?xml version="1.0" encoding="UTF-8" standalone="no"?>
<!-- Created with Inkscape (http://www.inkscape.org/) -->

<svg
   xmlns:dc="http://purl.org/dc/elements/1.1/"
   xmlns:cc="http://creativecommons.org/ns#"
   xmlns:rdf="http://www.w3.org/1999/02/22-rdf-syntax-ns#"
   xmlns:svg="http://www.w3.org/2000/svg"
   xmlns="http://www.w3.org/2000/svg"
   xmlns:sodipodi="http://sodipodi.sourceforge.net/DTD/sodipodi-0.dtd"
   xmlns:inkscape="http://www.inkscape.org/namespaces/inkscape"
   width="640"
   height="1136"
   id="svg3094"
   version="1.1"
   inkscape:version="0.48.2 r9819"
   sodipodi:docname="New document 3">
  <defs
     id="defs3096" />
  <sodipodi:namedview
     id="base"
     pagecolor="#ffffff"
     bordercolor="#666666"
     borderopacity="1.0"
     inkscape:pageopacity="0.0"
     inkscape:pageshadow="2"
     inkscape:zoom="0.49119719"
     inkscape:cx="320"
     inkscape:cy="568"
     inkscape:document-units="px"
     inkscape:current-layer="layer1"
     showgrid="false"
     inkscape:window-width="1308"
     inkscape:window-height="776"
     inkscape:window-x="24"
     inkscape:window-y="20"
     inkscape:window-maximized="0" />
  <metadata
     id="metadata3099">
    <rdf:RDF>
      <cc:Work
         rdf:about="">
        <dc:format>image/svg+xml</dc:format>
        <dc:type
           rdf:resource="http://purl.org/dc/dcmitype/StillImage" />
        <dc:title></dc:title>
      </cc:Work>
    </rdf:RDF>
  </metadata>
  <g
     inkscape:label="Layer 1"
     inkscape:groupmode="layer"
     id="layer1"
     transform="translate(0,83.637817)">
    <rect
       style="fill:#a7cff1;fill-opacity:1;stroke:#a02c2c;stroke-width:1.65135932;stroke-opacity:0"
       id="rect3102"
       width="638.34863"
       height="1134.3486"
       x="0.82567966"
       y="-82.812134" />
    <path
       sodipodi:type="arc"
       style="fill:#ececec;fill-opacity:1;stroke:#a02c2c;stroke-opacity:0"
       id="path3104"
       sodipodi:cx="-597.14288"
       sodipodi:cy="546"
       sodipodi:rx="188.57143"
       sodipodi:ry="181.42857"
       d="m -408.57146,546 a 188.57143,181.42857 0 1 1 -377.14285,0 188.57143,181.42857 0 1 1 377.14285,0 z"
       transform="matrix(1.2072238,0,0,1.2072238,1045.7795,54.0895)" />
    <path
       style="fill:#a7cff1;fill-opacity:1;stroke:#a02c2c;stroke-width:2.85714293;stroke-opacity:0"
       d="M 286.55699,858.31433 C 219.686,841.35853 170.42857,780.8187 170.42857,715.58675 c 0,-59.1273 33.7848,-110.51444 89.16859,-135.62665 33.43581,-15.16052 67.25614,-18.11498 102.51723,-8.95565 75.86177,19.70565 126.64809,92.3285 114.53835,163.78631 -9.21343,54.36723 -47.17806,99.22899 -100.46681,118.71888 -23.90055,8.7414 -65.34187,10.96294 -89.62894,4.80469 l 0,0 z"
       id="path3108"
       inkscape:connector-curvature="0" />
    <text
       xml:space="preserve"
       style="font-size:56px;font-style:normal;font-weight:normal;line-height:125%;letter-spacing:0px;word-spacing:0px;fill:#000000;fill-opacity:1;stroke:none;font-family:Sans"
       x="245.71428"
       y="249.50505"
       id="text3116"
       sodipodi:linespacing="125%"><tspan
         sodipodi:role="line"
         id="tspan3118"
         x="245.71428"
         y="249.50505">07:57</tspan></text>
    <rect
       style="fill:#a7cff1;fill-opacity:1;stroke:#a02c2c;stroke-width:1;stroke-opacity:0"
       id="rect3134"
       width="65.14695"
       height="543.56989"
       x="703.64142"
       y="29.683418"
       transform="matrix(0.70710678,0.70710678,-0.70710678,0.70710678,0,0)" />
    <path
       style="fill:#ececec;fill-opacity:1;stroke:#a02c2c;stroke-width:2.03584218;stroke-opacity:0"
       d="m 292.7649,764.39874 c -22.01251,-10.99977 -33.92054,-29.56864 -33.88359,-52.83656 0.0274,-17.23206 6.44004,-32.00892 18.49623,-42.6212 12.87382,-11.33199 22.00048,-15.11427 38.70221,-16.03901 19.38276,-1.07318 32.04296,3.22086 45.70118,15.50078 26.49049,23.81723 27.2939,58.6702 1.93696,84.02714 -13.45019,13.45019 -25.13646,18.17172 -44.97689,18.17172 -11.04312,0 -15.86934,-1.15246 -25.9761,-6.20287 z"
       id="path3138"
       inkscape:connector-curvature="0" />
    <path
       style="fill:none;stroke:#000000;stroke-width:1px;stroke-linecap:butt;stroke-linejoin:miter;stroke-opacity:1"
       d="m 274.83871,755.29749 83.46953,77.36201 z"
       id="path3140"
       inkscape:connector-curvature="0"
       transform="translate(0,-83.637817)" />
  </g>
</svg>
